# xmcd CD database file
# Copyright (C) 1996 Ti Kan
#
# Track frame offsets:
#  150
#  24530
#  58480
#  77027
#  104782
#  121260
#  135255
#  146802
#  169725
#  182617
#  200917
#  228205
#  248577
#
# Disc length: 3615 seconds
#
# Revision: 1
# Processed by: cddbd v1.4b41PL1 Copyright (c) Steve Scherf et al.
# Submitted via: CDWizzard Release:4.12
#
DISCID=b80e1d0d
DTITLE=NeatureQuest - Nature Sings the Blues
DYEAR=1900
DGENRE=
TTITLE0=Indigo Harbor Night
TTITLE1=Forest Black Out
TTITLE2=Backwater Blues
TTITLE3=Rhythm of Thunder
TTITLE4=Thoes Ramblin' Blues
TTITLE5=Cool Blue Cats
TTITLE6=Just for fun
TTITLE7=Bobin' out
TTITLE8=BlueSong
TTITLE9=Deep Woods Cajun Chorus
TTITLE10=Howlin Blue
TTITLE11=Black Bird Boogie
TTITLE12=Lazy River Ramblin
EXTD=
EXTT0=
EXTT1=
EXTT2=
EXTT3=
EXTT4=
EXTT5=
EXTT6=
EXTT7=
EXTT8=
EXTT9=
EXTT10=
EXTT11=
EXTT12=
PLAYORDER=
